<?xml version="1.0" encoding="UTF-8" standalone="no"?>
<!DOCTYPE svg PUBLIC "-//W3C//DTD SVG 1.1//EN" "http://www.w3.org/Graphics/SVG/1.1/DTD/svg11.dtd">
<svg width="100%" height="100%" viewBox="0 0 3106 513" version="1.1" xmlns="http://www.w3.org/2000/svg" xmlns:xlink="http://www.w3.org/1999/xlink" xml:space="preserve" xmlns:serif="http://www.serif.com/" style="fill-rule:evenodd;clip-rule:evenodd;stroke-linejoin:round;stroke-miterlimit:2;">
    <g transform="matrix(1,0,0,1,-651,-7475)">
        <g id="logo-4github" transform="matrix(5.04504,0,0,1.78265,283.081,4678.6)">
            <rect x="72.992" y="1568.76" width="615.456" height="287.213" style="fill:none;"/>
            <clipPath id="_clip1">
                <rect x="72.992" y="1568.76" width="615.456" height="287.213"/>
            </clipPath>
            <g clip-path="url(#_clip1)">
                <g transform="matrix(2.85274,0,0,8.07348,-1774.6,-13199.3)">
                    <g transform="matrix(26.0558,0,0,26.0558,688.448,1855.97)">
                        <path d="M0.077,-0L0.077,-0.652L0.228,-0.652L0.398,-0.328L0.462,-0.184L0.466,-0.184C0.463,-0.219 0.46,-0.257 0.455,-0.3C0.45,-0.343 0.448,-0.383 0.448,-0.422L0.448,-0.652L0.588,-0.652L0.588,-0L0.437,-0L0.267,-0.325L0.203,-0.467L0.199,-0.467C0.202,-0.431 0.206,-0.392 0.211,-0.351C0.215,-0.31 0.217,-0.27 0.217,-0.231L0.217,-0L0.077,-0Z" style="fill:rgb(30,30,30);fill-rule:nonzero;"/>
                    </g>
                    <g transform="matrix(26.0558,0,0,26.0558,705.775,1855.97)">
                        <path d="M0.349,0.012C0.294,0.012 0.244,-0.001 0.198,-0.026C0.152,-0.051 0.115,-0.089 0.087,-0.139C0.06,-0.188 0.046,-0.249 0.046,-0.322C0.046,-0.394 0.06,-0.456 0.089,-0.506C0.117,-0.558 0.155,-0.597 0.202,-0.624C0.249,-0.651 0.299,-0.664 0.354,-0.664C0.396,-0.664 0.434,-0.656 0.467,-0.639C0.5,-0.622 0.528,-0.602 0.55,-0.579L0.472,-0.485C0.455,-0.5 0.438,-0.513 0.42,-0.523C0.401,-0.532 0.38,-0.537 0.357,-0.537C0.328,-0.537 0.301,-0.529 0.277,-0.512C0.252,-0.495 0.233,-0.471 0.219,-0.44C0.204,-0.409 0.197,-0.371 0.197,-0.327C0.197,-0.26 0.211,-0.208 0.24,-0.171C0.269,-0.134 0.307,-0.115 0.355,-0.115C0.382,-0.115 0.406,-0.121 0.427,-0.133C0.448,-0.145 0.466,-0.159 0.482,-0.176L0.56,-0.084C0.505,-0.02 0.435,0.012 0.349,0.012Z" style="fill:rgb(30,30,30);fill-rule:nonzero;"/>
                    </g>
                    <g transform="matrix(26.0558,0,0,26.0558,720.21,1855.97)">
                        <path d="M0.276,0.012C0.233,0.012 0.191,0.004 0.149,-0.012C0.106,-0.028 0.068,-0.051 0.035,-0.082L0.119,-0.183C0.142,-0.163 0.168,-0.147 0.197,-0.134C0.226,-0.121 0.253,-0.115 0.28,-0.115C0.311,-0.115 0.334,-0.121 0.348,-0.132C0.364,-0.143 0.371,-0.159 0.371,-0.178C0.371,-0.199 0.363,-0.214 0.345,-0.224C0.329,-0.233 0.306,-0.244 0.277,-0.256L0.192,-0.292C0.17,-0.301 0.149,-0.314 0.129,-0.33C0.109,-0.345 0.093,-0.365 0.08,-0.388C0.067,-0.411 0.061,-0.439 0.061,-0.47C0.061,-0.506 0.071,-0.539 0.091,-0.568C0.11,-0.597 0.138,-0.621 0.172,-0.638C0.207,-0.655 0.248,-0.664 0.293,-0.664C0.33,-0.664 0.368,-0.657 0.405,-0.642C0.442,-0.627 0.475,-0.606 0.503,-0.578L0.428,-0.485C0.407,-0.502 0.385,-0.515 0.364,-0.524C0.343,-0.533 0.319,-0.537 0.293,-0.537C0.268,-0.537 0.248,-0.532 0.233,-0.522C0.218,-0.511 0.21,-0.497 0.21,-0.478C0.21,-0.458 0.22,-0.443 0.238,-0.433C0.258,-0.423 0.281,-0.412 0.309,-0.401L0.393,-0.367C0.432,-0.351 0.464,-0.329 0.487,-0.301C0.51,-0.273 0.522,-0.236 0.522,-0.19C0.522,-0.154 0.512,-0.121 0.493,-0.09C0.474,-0.059 0.446,-0.035 0.409,-0.016C0.372,0.003 0.328,0.012 0.276,0.012Z" style="fill:rgb(30,30,30);fill-rule:nonzero;"/>
                    </g>
                    <g transform="matrix(26.0558,0,0,26.0558,739.908,1855.97)">
                        <path d="M0.077,-0L0.077,-0.652L0.228,-0.652L0.398,-0.328L0.462,-0.184L0.466,-0.184C0.463,-0.219 0.46,-0.257 0.455,-0.3C0.45,-0.343 0.448,-0.383 0.448,-0.422L0.448,-0.652L0.588,-0.652L0.588,-0L0.437,-0L0.267,-0.325L0.203,-0.467L0.199,-0.467C0.202,-0.431 0.206,-0.392 0.211,-0.351C0.215,-0.31 0.217,-0.27 0.217,-0.231L0.217,-0L0.077,-0Z" style="fill:rgb(14,165,233);fill-rule:nonzero;"/>
                    </g>
                    <g transform="matrix(26.0558,0,0,26.0558,757.235,1855.97)">
                        <path d="M0.278,0.012C0.236,0.012 0.197,0.002 0.16,-0.019C0.123,-0.039 0.093,-0.069 0.07,-0.108C0.047,-0.147 0.036,-0.193 0.036,-0.248C0.036,-0.303 0.047,-0.35 0.07,-0.389C0.093,-0.428 0.123,-0.457 0.16,-0.477C0.197,-0.498 0.236,-0.508 0.278,-0.508C0.32,-0.508 0.359,-0.498 0.396,-0.477C0.433,-0.457 0.462,-0.428 0.485,-0.389C0.508,-0.35 0.519,-0.303 0.519,-0.248C0.519,-0.193 0.508,-0.147 0.485,-0.108C0.462,-0.069 0.433,-0.039 0.396,-0.019C0.359,0.002 0.32,0.012 0.278,0.012ZM0.278,-0.107C0.308,-0.107 0.331,-0.12 0.346,-0.146C0.361,-0.171 0.369,-0.205 0.369,-0.248C0.369,-0.291 0.361,-0.326 0.346,-0.351C0.331,-0.376 0.308,-0.389 0.278,-0.389C0.247,-0.389 0.225,-0.376 0.21,-0.351C0.195,-0.326 0.187,-0.291 0.187,-0.248C0.187,-0.205 0.195,-0.171 0.21,-0.146C0.225,-0.12 0.247,-0.107 0.278,-0.107Z" style="fill:rgb(14,165,233);fill-rule:nonzero;"/>
                    </g>
                    <g transform="matrix(26.0558,0,0,26.0558,771.696,1855.97)">
                        <path d="M0.065,-0L0.065,-0.496L0.185,-0.496L0.195,-0.409L0.199,-0.409C0.217,-0.442 0.239,-0.467 0.264,-0.484C0.289,-0.5 0.315,-0.508 0.34,-0.508C0.354,-0.508 0.366,-0.507 0.375,-0.505C0.384,-0.504 0.392,-0.501 0.399,-0.498L0.375,-0.371C0.366,-0.374 0.358,-0.376 0.349,-0.377C0.341,-0.378 0.332,-0.379 0.321,-0.379C0.302,-0.379 0.283,-0.372 0.263,-0.359C0.242,-0.345 0.225,-0.321 0.212,-0.288L0.212,-0L0.065,-0Z" style="fill:rgb(14,165,233);fill-rule:nonzero;"/>
                    </g>
                    <g transform="matrix(26.0558,0,0,26.0558,782.066,1855.97)">
                        <path d="M0.256,0.012C0.195,0.012 0.151,-0.006 0.125,-0.041C0.098,-0.076 0.085,-0.123 0.085,-0.18L0.085,-0.381L0.017,-0.381L0.017,-0.49L0.093,-0.496L0.11,-0.628L0.232,-0.628L0.232,-0.496L0.351,-0.496L0.351,-0.381L0.232,-0.381L0.232,-0.182C0.232,-0.154 0.238,-0.134 0.25,-0.122C0.261,-0.109 0.277,-0.103 0.296,-0.103C0.304,-0.103 0.312,-0.104 0.321,-0.106C0.329,-0.108 0.336,-0.11 0.343,-0.113L0.366,-0.006C0.353,-0.002 0.338,0.002 0.32,0.006C0.301,0.01 0.28,0.012 0.256,0.012Z" style="fill:rgb(14,165,233);fill-rule:nonzero;"/>
                    </g>
                    <g transform="matrix(26.0558,0,0,26.0558,792.046,1855.97)">
                        <path d="M0.065,-0L0.065,-0.701L0.212,-0.701L0.212,-0.529L0.205,-0.44C0.224,-0.457 0.246,-0.472 0.271,-0.487C0.296,-0.501 0.325,-0.508 0.358,-0.508C0.412,-0.508 0.451,-0.49 0.475,-0.455C0.5,-0.419 0.512,-0.37 0.512,-0.308L0.512,-0L0.365,-0L0.365,-0.289C0.365,-0.325 0.36,-0.35 0.35,-0.363C0.341,-0.376 0.325,-0.383 0.304,-0.383C0.285,-0.383 0.269,-0.379 0.256,-0.371C0.243,-0.362 0.228,-0.35 0.212,-0.335L0.212,-0L0.065,-0Z" style="fill:rgb(14,165,233);fill-rule:nonzero;"/>
                    </g>
                    <g transform="matrix(26.0558,0,0,26.0558,806.924,1855.97)">
                        <path d="M0.148,-0L0.024,-0.496L0.17,-0.496L0.218,-0.266C0.222,-0.241 0.226,-0.217 0.229,-0.193C0.232,-0.169 0.236,-0.144 0.24,-0.119L0.244,-0.119C0.249,-0.144 0.253,-0.169 0.258,-0.194C0.262,-0.219 0.267,-0.243 0.273,-0.266L0.328,-0.496L0.455,-0.496L0.511,-0.266C0.517,-0.241 0.523,-0.217 0.528,-0.193C0.533,-0.169 0.537,-0.144 0.542,-0.119L0.546,-0.119C0.551,-0.144 0.555,-0.169 0.558,-0.193C0.561,-0.217 0.564,-0.241 0.569,-0.266L0.616,-0.496L0.752,-0.496L0.633,-0L0.461,-0L0.416,-0.198C0.411,-0.221 0.407,-0.245 0.403,-0.268C0.398,-0.291 0.394,-0.316 0.389,-0.343L0.385,-0.343C0.38,-0.316 0.376,-0.291 0.373,-0.268C0.369,-0.245 0.365,-0.221 0.36,-0.198L0.316,-0L0.148,-0Z" style="fill:rgb(14,165,233);fill-rule:nonzero;"/>
                    </g>
                    <g transform="matrix(26.0558,0,0,26.0558,826.882,1855.97)">
                        <path d="M0.19,0.012C0.145,0.012 0.109,-0.003 0.082,-0.032C0.055,-0.061 0.042,-0.096 0.042,-0.138C0.042,-0.19 0.064,-0.231 0.108,-0.26C0.152,-0.289 0.223,-0.309 0.321,-0.319C0.32,-0.341 0.313,-0.359 0.302,-0.372C0.29,-0.385 0.27,-0.391 0.243,-0.391C0.222,-0.391 0.201,-0.387 0.18,-0.379C0.159,-0.371 0.136,-0.36 0.112,-0.346L0.059,-0.443C0.09,-0.462 0.124,-0.478 0.16,-0.49C0.195,-0.502 0.232,-0.508 0.271,-0.508C0.334,-0.508 0.383,-0.49 0.417,-0.453C0.451,-0.416 0.468,-0.36 0.468,-0.284L0.468,-0L0.348,-0L0.338,-0.051L0.334,-0.051C0.313,-0.032 0.291,-0.017 0.268,-0.006C0.244,0.006 0.218,0.012 0.19,0.012ZM0.24,-0.102C0.257,-0.102 0.271,-0.106 0.283,-0.114C0.296,-0.121 0.308,-0.131 0.321,-0.144L0.321,-0.231C0.269,-0.224 0.233,-0.214 0.213,-0.2C0.193,-0.185 0.183,-0.168 0.183,-0.149C0.183,-0.133 0.188,-0.121 0.199,-0.114C0.209,-0.106 0.223,-0.102 0.24,-0.102Z" style="fill:rgb(14,165,233);fill-rule:nonzero;"/>
                    </g>
                    <g transform="matrix(26.0558,0,0,26.0558,840.614,1855.97)">
                        <path d="M0.065,-0L0.065,-0.496L0.185,-0.496L0.195,-0.409L0.199,-0.409C0.217,-0.442 0.239,-0.467 0.264,-0.484C0.289,-0.5 0.315,-0.508 0.34,-0.508C0.354,-0.508 0.366,-0.507 0.375,-0.505C0.384,-0.504 0.392,-0.501 0.399,-0.498L0.375,-0.371C0.366,-0.374 0.358,-0.376 0.349,-0.377C0.341,-0.378 0.332,-0.379 0.321,-0.379C0.302,-0.379 0.283,-0.372 0.263,-0.359C0.242,-0.345 0.225,-0.321 0.212,-0.288L0.212,-0L0.065,-0Z" style="fill:rgb(14,165,233);fill-rule:nonzero;"/>
                    </g>
                    <g transform="matrix(26.0558,0,0,26.0558,850.724,1855.97)">
                        <path d="M0.287,0.012C0.24,0.012 0.197,0.002 0.159,-0.019C0.121,-0.04 0.091,-0.069 0.069,-0.108C0.047,-0.147 0.036,-0.193 0.036,-0.248C0.036,-0.302 0.047,-0.348 0.07,-0.387C0.092,-0.426 0.121,-0.456 0.157,-0.476C0.193,-0.498 0.231,-0.508 0.27,-0.508C0.317,-0.508 0.357,-0.498 0.388,-0.476C0.419,-0.456 0.442,-0.427 0.458,-0.392C0.473,-0.356 0.481,-0.315 0.481,-0.27C0.481,-0.257 0.48,-0.245 0.479,-0.233C0.478,-0.22 0.476,-0.211 0.475,-0.205L0.178,-0.205C0.185,-0.169 0.2,-0.142 0.223,-0.126C0.246,-0.109 0.274,-0.1 0.307,-0.1C0.342,-0.1 0.378,-0.111 0.414,-0.133L0.463,-0.044C0.438,-0.027 0.409,-0.013 0.378,-0.003C0.347,0.007 0.316,0.012 0.287,0.012ZM0.177,-0.302L0.356,-0.302C0.356,-0.329 0.349,-0.352 0.337,-0.37C0.324,-0.387 0.302,-0.396 0.273,-0.396C0.25,-0.396 0.23,-0.388 0.212,-0.373C0.194,-0.357 0.182,-0.333 0.177,-0.302Z" style="fill:rgb(14,165,233);fill-rule:nonzero;"/>
                    </g>
                </g>
                <g id="Icon-Github" serif:id="Icon Github" transform="matrix(0.267423,0,0,2.41064,-140.564,507.325)">
                    <g transform="matrix(2.19542,0,0,1.74303,196.688,-735.087)">
                        <g id="Polygon">
                            <path id="Polygon1" serif:id="Polygon" d="M342.249,675.883C346.427,674.929 351.575,674.929 355.754,675.883C369.976,679.13 402.876,686.641 417.099,689.888C421.277,690.842 423.851,692.605 423.851,694.513L423.851,722.524C423.851,724.432 421.277,726.195 417.099,727.149C402.876,730.396 369.976,737.907 355.754,741.154C351.575,742.108 346.427,742.108 342.249,741.154C328.026,737.907 295.127,730.396 280.904,727.149C276.726,726.195 274.152,724.432 274.152,722.524L274.152,694.513C274.152,692.605 276.726,690.842 280.904,689.888C295.127,686.641 328.026,679.13 342.249,675.883Z" style="fill:none;"/>
                            <clipPath id="_clip2">
                                <path id="Polygon2" serif:id="Polygon" d="M342.249,675.883C346.427,674.929 351.575,674.929 355.754,675.883C369.976,679.13 402.876,686.641 417.099,689.888C421.277,690.842 423.851,692.605 423.851,694.513L423.851,722.524C423.851,724.432 421.277,726.195 417.099,727.149C402.876,730.396 369.976,737.907 355.754,741.154C351.575,742.108 346.427,742.108 342.249,741.154C328.026,737.907 295.127,730.396 280.904,727.149C276.726,726.195 274.152,724.432 274.152,722.524L274.152,694.513C274.152,692.605 276.726,690.842 280.904,689.888C295.127,686.641 328.026,679.13 342.249,675.883Z"/>
                            </clipPath>
                            <g clip-path="url(#_clip2)">
                                <path id="HG" d="M342.249,675.883C346.427,674.929 351.575,674.929 355.754,675.883C369.976,679.13 402.876,686.641 417.099,689.888C421.277,690.842 423.851,692.605 423.851,694.513L423.851,722.524C423.851,724.432 421.277,726.195 417.099,727.149C402.876,730.396 369.976,737.907 355.754,741.154C351.575,742.108 346.427,742.108 342.249,741.154C328.026,737.907 295.127,730.396 280.904,727.149C276.726,726.195 274.152,724.432 274.152,722.524L274.152,694.513C274.152,692.605 276.726,690.842 280.904,689.888C295.127,686.641 328.026,679.13 342.249,675.883Z" style="fill:rgb(39,39,39);"/>
                                <g id="seite-rechts" serif:id="seite rechts" transform="matrix(0.345715,0,0,0.136709,223.852,622.939)">
                                    <path d="M362,876L578.5,751L578.5,501L362,626L362,876Z" style="fill:rgb(36,36,36);"/>
                                </g>
                                <g id="seite-hinten" serif:id="seite hinten" transform="matrix(0.345715,0,0,0.136709,223.852,622.939)">
                                    <path d="M362,376L578.5,501L578.5,751L362,626L362,376Z" style="fill:rgb(39,39,39);"/>
                                </g>
                                <g id="seite-links" serif:id="seite links" transform="matrix(0.345715,0,0,0.136709,223.852,622.939)">
                                    <path d="M362,376L145.5,501L145.5,751L362,626L362,376Z" style="fill:rgb(34,34,34);"/>
                                </g>
                                <g id="seite-vorne" serif:id="seite vorne" transform="matrix(0.345715,0,0,0.136709,223.852,622.939)">
                                    <path d="M145.5,501L145.5,751L362,876L362,626L145.5,501Z" style="fill:rgb(30,30,30);"/>
                                </g>
                            </g>
                        </g>
                    </g>
                    <g transform="matrix(0.491341,0,0,0.154258,733.404,-238.217)">
                        <g transform="matrix(216.263,0,0,216.263,152.405,4844.32)">
                            <path d="M0.506,-0.094L0.034,-0.274L0.034,-0.39L0.506,-0.57L0.506,-0.43L0.344,-0.38L0.208,-0.334L0.208,-0.33L0.344,-0.284L0.506,-0.234L0.506,-0.094Z" style="fill:rgb(14,165,233);fill-rule:nonzero;"/>
                        </g>
                        <g transform="matrix(216.263,0,0,216.263,269.187,4844.32)">
                            <path d="M0.072,-0L0.072,-0.65L0.248,-0.65L0.392,-0.36L0.454,-0.214L0.458,-0.214C0.454,-0.249 0.449,-0.29 0.444,-0.335C0.439,-0.38 0.436,-0.422 0.436,-0.462L0.436,-0.65L0.6,-0.65L0.6,-0L0.424,-0L0.28,-0.291L0.218,-0.436L0.214,-0.436C0.218,-0.399 0.223,-0.359 0.228,-0.315C0.233,-0.27 0.236,-0.228 0.236,-0.188L0.236,-0L0.072,-0Z" style="fill:rgb(14,165,233);fill-rule:nonzero;"/>
                        </g>
                        <g transform="matrix(216.263,0,0,216.263,414.515,4844.32)">
                            <path d="M0.124,-0L0.01,-0.65L0.186,-0.65L0.222,-0.366C0.225,-0.332 0.229,-0.298 0.233,-0.264C0.237,-0.23 0.241,-0.196 0.244,-0.162L0.248,-0.162C0.254,-0.196 0.26,-0.23 0.266,-0.265C0.272,-0.299 0.278,-0.333 0.284,-0.366L0.346,-0.65L0.49,-0.65L0.552,-0.366C0.558,-0.333 0.564,-0.3 0.57,-0.266C0.576,-0.231 0.582,-0.197 0.588,-0.162L0.592,-0.162C0.595,-0.197 0.599,-0.231 0.603,-0.266C0.607,-0.3 0.611,-0.333 0.614,-0.366L0.65,-0.65L0.814,-0.65L0.706,-0L0.488,-0L0.438,-0.258C0.433,-0.283 0.429,-0.309 0.425,-0.335C0.421,-0.361 0.417,-0.386 0.414,-0.41L0.41,-0.41C0.407,-0.386 0.403,-0.361 0.4,-0.335C0.396,-0.309 0.391,-0.283 0.386,-0.258L0.338,-0L0.124,-0Z" style="fill:rgb(14,165,233);fill-rule:nonzero;"/>
                        </g>
                        <g transform="matrix(216.263,0,0,216.263,592.716,4844.32)">
                            <path d="M0.014,0.16L0.19,-0.71L0.3,-0.71L0.124,0.16L0.014,0.16Z" style="fill:rgb(14,165,233);fill-rule:nonzero;"/>
                        </g>
                        <g transform="matrix(216.263,0,0,216.263,664.948,4844.32)">
                            <path d="M0.034,-0.094L0.034,-0.234L0.196,-0.284L0.332,-0.33L0.332,-0.334L0.196,-0.38L0.034,-0.43L0.034,-0.57L0.506,-0.39L0.506,-0.274L0.034,-0.094Z" style="fill:rgb(14,165,233);fill-rule:nonzero;"/>
                        </g>
                    </g>
                </g>
            </g>
        </g>
    </g>
</svg>
